<mxfile host="app.diagrams.net" modified="2023-07-11T13:21:19.094Z" agent="Mozilla/5.0 (Windows NT 10.0; Win64; x64) AppleWebKit/537.36 (KHTML, like Gecko) Chrome/114.0.0.0 Safari/537.36" etag="FN0mhVmXgHPwn48k0S83" version="21.5.2" type="device">
  <diagram id="C5RBs43oDa-KdzZeNtuy" name="Page-1">
    <mxGraphModel dx="1050" dy="573" grid="1" gridSize="10" guides="1" tooltips="1" connect="1" arrows="1" fold="1" page="1" pageScale="1" pageWidth="827" pageHeight="1169" math="0" shadow="0">
      <root>
        <mxCell id="WIyWlLk6GJQsqaUBKTNV-0" />
        <mxCell id="WIyWlLk6GJQsqaUBKTNV-1" parent="WIyWlLk6GJQsqaUBKTNV-0" />
        <mxCell id="rPbaxVWANsye8pXzsSqK-4" style="edgeStyle=orthogonalEdgeStyle;rounded=0;orthogonalLoop=1;jettySize=auto;html=1;exitX=0.5;exitY=1;exitDx=0;exitDy=0;entryX=0.5;entryY=0;entryDx=0;entryDy=0;" parent="WIyWlLk6GJQsqaUBKTNV-1" source="rPbaxVWANsye8pXzsSqK-0" target="rPbaxVWANsye8pXzsSqK-3" edge="1">
          <mxGeometry relative="1" as="geometry" />
        </mxCell>
        <mxCell id="rPbaxVWANsye8pXzsSqK-0" value="start" style="ellipse;whiteSpace=wrap;html=1;" parent="WIyWlLk6GJQsqaUBKTNV-1" vertex="1">
          <mxGeometry x="320" y="20" width="110" height="60" as="geometry" />
        </mxCell>
        <mxCell id="rPbaxVWANsye8pXzsSqK-6" style="edgeStyle=orthogonalEdgeStyle;rounded=0;orthogonalLoop=1;jettySize=auto;html=1;entryX=0.5;entryY=0;entryDx=0;entryDy=0;" parent="WIyWlLk6GJQsqaUBKTNV-1" source="rPbaxVWANsye8pXzsSqK-3" target="rPbaxVWANsye8pXzsSqK-5" edge="1">
          <mxGeometry relative="1" as="geometry" />
        </mxCell>
        <mxCell id="rPbaxVWANsye8pXzsSqK-8" style="edgeStyle=orthogonalEdgeStyle;rounded=0;orthogonalLoop=1;jettySize=auto;html=1;entryX=0.5;entryY=0;entryDx=0;entryDy=0;" parent="WIyWlLk6GJQsqaUBKTNV-1" source="rPbaxVWANsye8pXzsSqK-3" target="rPbaxVWANsye8pXzsSqK-7" edge="1">
          <mxGeometry relative="1" as="geometry" />
        </mxCell>
        <mxCell id="rPbaxVWANsye8pXzsSqK-3" value="is User Registered?" style="rhombus;whiteSpace=wrap;html=1;" parent="WIyWlLk6GJQsqaUBKTNV-1" vertex="1">
          <mxGeometry x="336.25" y="120" width="77.5" height="60" as="geometry" />
        </mxCell>
        <mxCell id="rPbaxVWANsye8pXzsSqK-11" style="edgeStyle=orthogonalEdgeStyle;rounded=0;orthogonalLoop=1;jettySize=auto;html=1;entryX=0.5;entryY=0;entryDx=0;entryDy=0;" parent="WIyWlLk6GJQsqaUBKTNV-1" source="rPbaxVWANsye8pXzsSqK-5" target="rPbaxVWANsye8pXzsSqK-10" edge="1">
          <mxGeometry relative="1" as="geometry" />
        </mxCell>
        <mxCell id="rPbaxVWANsye8pXzsSqK-5" value="Login" style="rounded=0;whiteSpace=wrap;html=1;" parent="WIyWlLk6GJQsqaUBKTNV-1" vertex="1">
          <mxGeometry x="315" y="230" width="120" height="30" as="geometry" />
        </mxCell>
        <mxCell id="rPbaxVWANsye8pXzsSqK-9" style="edgeStyle=orthogonalEdgeStyle;rounded=0;orthogonalLoop=1;jettySize=auto;html=1;entryX=0;entryY=0.5;entryDx=0;entryDy=0;" parent="WIyWlLk6GJQsqaUBKTNV-1" source="rPbaxVWANsye8pXzsSqK-7" target="rPbaxVWANsye8pXzsSqK-5" edge="1">
          <mxGeometry relative="1" as="geometry">
            <Array as="points">
              <mxPoint x="240" y="245" />
            </Array>
          </mxGeometry>
        </mxCell>
        <mxCell id="rPbaxVWANsye8pXzsSqK-7" value="Register" style="rounded=0;whiteSpace=wrap;html=1;" parent="WIyWlLk6GJQsqaUBKTNV-1" vertex="1">
          <mxGeometry x="180" y="170" width="120" height="20" as="geometry" />
        </mxCell>
        <mxCell id="rPbaxVWANsye8pXzsSqK-13" style="edgeStyle=orthogonalEdgeStyle;rounded=0;orthogonalLoop=1;jettySize=auto;html=1;entryX=0;entryY=0.5;entryDx=0;entryDy=0;" parent="WIyWlLk6GJQsqaUBKTNV-1" source="rPbaxVWANsye8pXzsSqK-10" target="rPbaxVWANsye8pXzsSqK-12" edge="1">
          <mxGeometry relative="1" as="geometry" />
        </mxCell>
        <mxCell id="rPbaxVWANsye8pXzsSqK-32" style="edgeStyle=orthogonalEdgeStyle;rounded=0;orthogonalLoop=1;jettySize=auto;html=1;entryX=0.5;entryY=0;entryDx=0;entryDy=0;" parent="WIyWlLk6GJQsqaUBKTNV-1" source="rPbaxVWANsye8pXzsSqK-10" target="rPbaxVWANsye8pXzsSqK-18" edge="1">
          <mxGeometry relative="1" as="geometry" />
        </mxCell>
        <mxCell id="rPbaxVWANsye8pXzsSqK-10" value="Is Logged User Admin?" style="rhombus;whiteSpace=wrap;html=1;" parent="WIyWlLk6GJQsqaUBKTNV-1" vertex="1">
          <mxGeometry x="334.75" y="320" width="80" height="80" as="geometry" />
        </mxCell>
        <mxCell id="rPbaxVWANsye8pXzsSqK-57" style="edgeStyle=orthogonalEdgeStyle;rounded=0;orthogonalLoop=1;jettySize=auto;html=1;entryX=0.5;entryY=1;entryDx=0;entryDy=0;" parent="WIyWlLk6GJQsqaUBKTNV-1" edge="1">
          <mxGeometry relative="1" as="geometry">
            <mxPoint x="623" y="345" as="sourcePoint" />
            <mxPoint x="603" y="300" as="targetPoint" />
          </mxGeometry>
        </mxCell>
        <mxCell id="rPbaxVWANsye8pXzsSqK-58" style="edgeStyle=orthogonalEdgeStyle;rounded=0;orthogonalLoop=1;jettySize=auto;html=1;" parent="WIyWlLk6GJQsqaUBKTNV-1" edge="1">
          <mxGeometry relative="1" as="geometry">
            <mxPoint x="602" y="345" as="sourcePoint" />
            <mxPoint x="742" y="300" as="targetPoint" />
            <Array as="points">
              <mxPoint x="602" y="323" />
              <mxPoint x="742" y="323" />
            </Array>
          </mxGeometry>
        </mxCell>
        <mxCell id="rPbaxVWANsye8pXzsSqK-77" style="edgeStyle=orthogonalEdgeStyle;rounded=0;orthogonalLoop=1;jettySize=auto;html=1;entryX=0.5;entryY=1;entryDx=0;entryDy=0;exitX=0.369;exitY=0.056;exitDx=0;exitDy=0;exitPerimeter=0;" parent="WIyWlLk6GJQsqaUBKTNV-1" edge="1">
          <mxGeometry relative="1" as="geometry">
            <mxPoint x="604.28" y="339.68000000000006" as="sourcePoint" />
            <mxPoint x="870" y="293" as="targetPoint" />
            <Array as="points">
              <mxPoint x="604" y="323" />
              <mxPoint x="870" y="323" />
            </Array>
          </mxGeometry>
        </mxCell>
        <mxCell id="rPbaxVWANsye8pXzsSqK-78" style="edgeStyle=orthogonalEdgeStyle;rounded=0;orthogonalLoop=1;jettySize=auto;html=1;entryX=1;entryY=0.5;entryDx=0;entryDy=0;" parent="WIyWlLk6GJQsqaUBKTNV-1" source="rPbaxVWANsye8pXzsSqK-12" target="rPbaxVWANsye8pXzsSqK-67" edge="1">
          <mxGeometry relative="1" as="geometry">
            <Array as="points">
              <mxPoint x="700" y="360" />
              <mxPoint x="700" y="723" />
            </Array>
          </mxGeometry>
        </mxCell>
        <mxCell id="rPbaxVWANsye8pXzsSqK-12" value="Admin Dashboard" style="rounded=0;whiteSpace=wrap;html=1;" parent="WIyWlLk6GJQsqaUBKTNV-1" vertex="1">
          <mxGeometry x="560" y="345" width="120" height="30" as="geometry" />
        </mxCell>
        <mxCell id="rPbaxVWANsye8pXzsSqK-14" value="Manage Customers" style="rounded=0;whiteSpace=wrap;html=1;" parent="WIyWlLk6GJQsqaUBKTNV-1" vertex="1">
          <mxGeometry x="540" y="270" width="120" height="30" as="geometry" />
        </mxCell>
        <mxCell id="rPbaxVWANsye8pXzsSqK-15" value="Manage Farmers" style="rounded=0;whiteSpace=wrap;html=1;" parent="WIyWlLk6GJQsqaUBKTNV-1" vertex="1">
          <mxGeometry x="680" y="270" width="120" height="30" as="geometry" />
        </mxCell>
        <mxCell id="rPbaxVWANsye8pXzsSqK-16" value="Yes" style="text;html=1;align=center;verticalAlign=middle;resizable=0;points=[];autosize=1;strokeColor=none;fillColor=none;" parent="WIyWlLk6GJQsqaUBKTNV-1" vertex="1">
          <mxGeometry x="440" y="338" width="40" height="30" as="geometry" />
        </mxCell>
        <mxCell id="rPbaxVWANsye8pXzsSqK-23" style="edgeStyle=orthogonalEdgeStyle;rounded=0;orthogonalLoop=1;jettySize=auto;html=1;entryX=0.5;entryY=0;entryDx=0;entryDy=0;" parent="WIyWlLk6GJQsqaUBKTNV-1" source="rPbaxVWANsye8pXzsSqK-18" target="rPbaxVWANsye8pXzsSqK-24" edge="1">
          <mxGeometry relative="1" as="geometry">
            <mxPoint x="80" y="423" as="targetPoint" />
          </mxGeometry>
        </mxCell>
        <mxCell id="rPbaxVWANsye8pXzsSqK-31" style="edgeStyle=orthogonalEdgeStyle;rounded=0;orthogonalLoop=1;jettySize=auto;html=1;entryX=0.56;entryY=-0.034;entryDx=0;entryDy=0;entryPerimeter=0;" parent="WIyWlLk6GJQsqaUBKTNV-1" source="rPbaxVWANsye8pXzsSqK-18" target="rPbaxVWANsye8pXzsSqK-27" edge="1">
          <mxGeometry relative="1" as="geometry" />
        </mxCell>
        <mxCell id="rPbaxVWANsye8pXzsSqK-18" value="&lt;font style=&quot;font-size: 10px;&quot;&gt;Is logged user Farmer?&lt;/font&gt;" style="rhombus;whiteSpace=wrap;html=1;" parent="WIyWlLk6GJQsqaUBKTNV-1" vertex="1">
          <mxGeometry x="140" y="380" width="90" height="75" as="geometry" />
        </mxCell>
        <mxCell id="rPbaxVWANsye8pXzsSqK-49" style="edgeStyle=orthogonalEdgeStyle;rounded=0;orthogonalLoop=1;jettySize=auto;html=1;exitX=0.25;exitY=1;exitDx=0;exitDy=0;" parent="WIyWlLk6GJQsqaUBKTNV-1" source="rPbaxVWANsye8pXzsSqK-24" target="rPbaxVWANsye8pXzsSqK-37" edge="1">
          <mxGeometry relative="1" as="geometry">
            <Array as="points">
              <mxPoint x="80" y="500" />
              <mxPoint x="80" y="540" />
              <mxPoint x="30" y="540" />
            </Array>
          </mxGeometry>
        </mxCell>
        <mxCell id="rPbaxVWANsye8pXzsSqK-50" style="edgeStyle=orthogonalEdgeStyle;rounded=0;orthogonalLoop=1;jettySize=auto;html=1;" parent="WIyWlLk6GJQsqaUBKTNV-1" source="rPbaxVWANsye8pXzsSqK-24" target="rPbaxVWANsye8pXzsSqK-45" edge="1">
          <mxGeometry relative="1" as="geometry">
            <Array as="points">
              <mxPoint x="80" y="540" />
              <mxPoint x="100" y="540" />
            </Array>
          </mxGeometry>
        </mxCell>
        <mxCell id="rPbaxVWANsye8pXzsSqK-79" style="edgeStyle=orthogonalEdgeStyle;rounded=0;orthogonalLoop=1;jettySize=auto;html=1;" parent="WIyWlLk6GJQsqaUBKTNV-1" source="rPbaxVWANsye8pXzsSqK-24" target="rPbaxVWANsye8pXzsSqK-67" edge="1">
          <mxGeometry relative="1" as="geometry">
            <Array as="points">
              <mxPoint x="240" y="485" />
              <mxPoint x="240" y="620" />
              <mxPoint x="454" y="620" />
            </Array>
          </mxGeometry>
        </mxCell>
        <mxCell id="rPbaxVWANsye8pXzsSqK-24" value="Farmer Dashboard" style="rounded=0;whiteSpace=wrap;html=1;" parent="WIyWlLk6GJQsqaUBKTNV-1" vertex="1">
          <mxGeometry x="20" y="470" width="110" height="30" as="geometry" />
        </mxCell>
        <mxCell id="rPbaxVWANsye8pXzsSqK-51" style="edgeStyle=orthogonalEdgeStyle;rounded=0;orthogonalLoop=1;jettySize=auto;html=1;entryX=0.5;entryY=0;entryDx=0;entryDy=0;" parent="WIyWlLk6GJQsqaUBKTNV-1" source="rPbaxVWANsye8pXzsSqK-27" target="rPbaxVWANsye8pXzsSqK-39" edge="1">
          <mxGeometry relative="1" as="geometry" />
        </mxCell>
        <mxCell id="rPbaxVWANsye8pXzsSqK-54" style="edgeStyle=orthogonalEdgeStyle;rounded=0;orthogonalLoop=1;jettySize=auto;html=1;entryX=0.5;entryY=0;entryDx=0;entryDy=0;" parent="WIyWlLk6GJQsqaUBKTNV-1" source="rPbaxVWANsye8pXzsSqK-27" target="rPbaxVWANsye8pXzsSqK-53" edge="1">
          <mxGeometry relative="1" as="geometry">
            <Array as="points">
              <mxPoint x="322" y="520" />
              <mxPoint x="445" y="520" />
            </Array>
          </mxGeometry>
        </mxCell>
        <mxCell id="rPbaxVWANsye8pXzsSqK-56" style="edgeStyle=orthogonalEdgeStyle;rounded=0;orthogonalLoop=1;jettySize=auto;html=1;entryX=0.5;entryY=0;entryDx=0;entryDy=0;" parent="WIyWlLk6GJQsqaUBKTNV-1" source="rPbaxVWANsye8pXzsSqK-27" target="rPbaxVWANsye8pXzsSqK-55" edge="1">
          <mxGeometry relative="1" as="geometry">
            <Array as="points">
              <mxPoint x="322" y="520" />
              <mxPoint x="560" y="520" />
            </Array>
          </mxGeometry>
        </mxCell>
        <mxCell id="rPbaxVWANsye8pXzsSqK-80" style="edgeStyle=orthogonalEdgeStyle;rounded=0;orthogonalLoop=1;jettySize=auto;html=1;" parent="WIyWlLk6GJQsqaUBKTNV-1" source="rPbaxVWANsye8pXzsSqK-27" target="rPbaxVWANsye8pXzsSqK-67" edge="1">
          <mxGeometry relative="1" as="geometry">
            <Array as="points">
              <mxPoint x="240" y="485" />
              <mxPoint x="240" y="620" />
              <mxPoint x="454" y="620" />
            </Array>
          </mxGeometry>
        </mxCell>
        <mxCell id="rPbaxVWANsye8pXzsSqK-27" value="Customer Dashboard" style="rounded=0;whiteSpace=wrap;html=1;" parent="WIyWlLk6GJQsqaUBKTNV-1" vertex="1">
          <mxGeometry x="270" y="470" width="103.75" height="30" as="geometry" />
        </mxCell>
        <mxCell id="rPbaxVWANsye8pXzsSqK-37" value="Modify Product" style="rounded=0;whiteSpace=wrap;html=1;" parent="WIyWlLk6GJQsqaUBKTNV-1" vertex="1">
          <mxGeometry y="580" width="60" height="30" as="geometry" />
        </mxCell>
        <mxCell id="rPbaxVWANsye8pXzsSqK-39" value="Order Product" style="rounded=0;whiteSpace=wrap;html=1;" parent="WIyWlLk6GJQsqaUBKTNV-1" vertex="1">
          <mxGeometry x="271.75" y="540" width="100" height="30" as="geometry" />
        </mxCell>
        <mxCell id="rPbaxVWANsye8pXzsSqK-47" style="edgeStyle=orthogonalEdgeStyle;rounded=0;orthogonalLoop=1;jettySize=auto;html=1;entryX=0.75;entryY=0;entryDx=0;entryDy=0;" parent="WIyWlLk6GJQsqaUBKTNV-1" edge="1">
          <mxGeometry relative="1" as="geometry">
            <mxPoint x="80" y="500" as="sourcePoint" />
            <mxPoint x="180" y="580" as="targetPoint" />
            <Array as="points">
              <mxPoint x="80" y="540" />
              <mxPoint x="180" y="540" />
            </Array>
          </mxGeometry>
        </mxCell>
        <mxCell id="rPbaxVWANsye8pXzsSqK-45" value="Add Product" style="rounded=0;whiteSpace=wrap;html=1;" parent="WIyWlLk6GJQsqaUBKTNV-1" vertex="1">
          <mxGeometry x="70" y="579" width="60" height="30" as="geometry" />
        </mxCell>
        <mxCell id="rPbaxVWANsye8pXzsSqK-60" style="edgeStyle=orthogonalEdgeStyle;rounded=0;orthogonalLoop=1;jettySize=auto;html=1;" parent="WIyWlLk6GJQsqaUBKTNV-1" edge="1">
          <mxGeometry relative="1" as="geometry">
            <mxPoint x="170" y="611" as="sourcePoint" />
            <mxPoint x="115" y="651" as="targetPoint" />
            <Array as="points">
              <mxPoint x="170" y="630" />
              <mxPoint x="116" y="630" />
              <mxPoint x="116" y="651" />
            </Array>
          </mxGeometry>
        </mxCell>
        <mxCell id="rPbaxVWANsye8pXzsSqK-46" value="Manage order" style="rounded=0;whiteSpace=wrap;html=1;" parent="WIyWlLk6GJQsqaUBKTNV-1" vertex="1">
          <mxGeometry x="140" y="580" width="60" height="30" as="geometry" />
        </mxCell>
        <mxCell id="rPbaxVWANsye8pXzsSqK-53" value="Feedback" style="rounded=0;whiteSpace=wrap;html=1;" parent="WIyWlLk6GJQsqaUBKTNV-1" vertex="1">
          <mxGeometry x="400" y="540" width="90" height="30" as="geometry" />
        </mxCell>
        <mxCell id="rPbaxVWANsye8pXzsSqK-55" value="Cash On Delivery" style="rounded=0;whiteSpace=wrap;html=1;" parent="WIyWlLk6GJQsqaUBKTNV-1" vertex="1">
          <mxGeometry x="510" y="540" width="100" height="30" as="geometry" />
        </mxCell>
        <mxCell id="rPbaxVWANsye8pXzsSqK-61" style="edgeStyle=orthogonalEdgeStyle;rounded=0;orthogonalLoop=1;jettySize=auto;html=1;exitX=1;exitY=0.5;exitDx=0;exitDy=0;entryX=1;entryY=0.5;entryDx=0;entryDy=0;" parent="WIyWlLk6GJQsqaUBKTNV-1" source="rPbaxVWANsye8pXzsSqK-59" target="rPbaxVWANsye8pXzsSqK-46" edge="1">
          <mxGeometry relative="1" as="geometry" />
        </mxCell>
        <mxCell id="rPbaxVWANsye8pXzsSqK-64" style="edgeStyle=orthogonalEdgeStyle;rounded=0;orthogonalLoop=1;jettySize=auto;html=1;" parent="WIyWlLk6GJQsqaUBKTNV-1" source="rPbaxVWANsye8pXzsSqK-59" target="rPbaxVWANsye8pXzsSqK-63" edge="1">
          <mxGeometry relative="1" as="geometry" />
        </mxCell>
        <mxCell id="rPbaxVWANsye8pXzsSqK-59" value="Is order Geniune" style="rhombus;whiteSpace=wrap;html=1;" parent="WIyWlLk6GJQsqaUBKTNV-1" vertex="1">
          <mxGeometry x="60" y="650" width="110" height="100" as="geometry" />
        </mxCell>
        <mxCell id="rPbaxVWANsye8pXzsSqK-62" value="No" style="text;html=1;align=center;verticalAlign=middle;resizable=0;points=[];autosize=1;strokeColor=none;fillColor=none;" parent="WIyWlLk6GJQsqaUBKTNV-1" vertex="1">
          <mxGeometry x="170" y="668" width="40" height="30" as="geometry" />
        </mxCell>
        <mxCell id="rPbaxVWANsye8pXzsSqK-66" style="edgeStyle=orthogonalEdgeStyle;rounded=0;orthogonalLoop=1;jettySize=auto;html=1;" parent="WIyWlLk6GJQsqaUBKTNV-1" source="rPbaxVWANsye8pXzsSqK-63" target="rPbaxVWANsye8pXzsSqK-65" edge="1">
          <mxGeometry relative="1" as="geometry" />
        </mxCell>
        <mxCell id="rPbaxVWANsye8pXzsSqK-63" value="Deliver Product" style="rounded=0;whiteSpace=wrap;html=1;" parent="WIyWlLk6GJQsqaUBKTNV-1" vertex="1">
          <mxGeometry x="70" y="800" width="90" height="30" as="geometry" />
        </mxCell>
        <mxCell id="rPbaxVWANsye8pXzsSqK-65" value="END" style="rounded=0;whiteSpace=wrap;html=1;" parent="WIyWlLk6GJQsqaUBKTNV-1" vertex="1">
          <mxGeometry x="283.75" y="800" width="90" height="30" as="geometry" />
        </mxCell>
        <mxCell id="rPbaxVWANsye8pXzsSqK-72" style="edgeStyle=orthogonalEdgeStyle;rounded=0;orthogonalLoop=1;jettySize=auto;html=1;entryX=1;entryY=0.5;entryDx=0;entryDy=0;exitX=0;exitY=0.5;exitDx=0;exitDy=0;" parent="WIyWlLk6GJQsqaUBKTNV-1" source="rPbaxVWANsye8pXzsSqK-67" edge="1">
          <mxGeometry relative="1" as="geometry">
            <mxPoint x="362" y="709.0000000000002" as="sourcePoint" />
            <mxPoint x="326.75" y="801" as="targetPoint" />
          </mxGeometry>
        </mxCell>
        <mxCell id="rPbaxVWANsye8pXzsSqK-67" value="LogOut" style="rounded=0;whiteSpace=wrap;html=1;" parent="WIyWlLk6GJQsqaUBKTNV-1" vertex="1">
          <mxGeometry x="409" y="708" width="90" height="30" as="geometry" />
        </mxCell>
        <mxCell id="rPbaxVWANsye8pXzsSqK-68" value="yes" style="text;html=1;align=center;verticalAlign=middle;resizable=0;points=[];autosize=1;strokeColor=none;fillColor=none;rotation=-90;" parent="WIyWlLk6GJQsqaUBKTNV-1" vertex="1">
          <mxGeometry x="100" y="758" width="40" height="30" as="geometry" />
        </mxCell>
        <mxCell id="rPbaxVWANsye8pXzsSqK-73" value="No" style="text;html=1;align=center;verticalAlign=middle;resizable=0;points=[];autosize=1;strokeColor=none;fillColor=none;" parent="WIyWlLk6GJQsqaUBKTNV-1" vertex="1">
          <mxGeometry x="280" y="398" width="40" height="30" as="geometry" />
        </mxCell>
        <mxCell id="rPbaxVWANsye8pXzsSqK-74" value="Yes" style="text;html=1;align=center;verticalAlign=middle;resizable=0;points=[];autosize=1;strokeColor=none;fillColor=none;" parent="WIyWlLk6GJQsqaUBKTNV-1" vertex="1">
          <mxGeometry x="90" y="398" width="40" height="30" as="geometry" />
        </mxCell>
        <mxCell id="rPbaxVWANsye8pXzsSqK-75" value="No" style="text;html=1;align=center;verticalAlign=middle;resizable=0;points=[];autosize=1;strokeColor=none;fillColor=none;" parent="WIyWlLk6GJQsqaUBKTNV-1" vertex="1">
          <mxGeometry x="250" y="338" width="40" height="30" as="geometry" />
        </mxCell>
        <mxCell id="rPbaxVWANsye8pXzsSqK-76" value="Manage Farmers" style="rounded=0;whiteSpace=wrap;html=1;" parent="WIyWlLk6GJQsqaUBKTNV-1" vertex="1">
          <mxGeometry x="810" y="270" width="120" height="30" as="geometry" />
        </mxCell>
        <mxCell id="fCgB68FxyiANEFOPEbRv-0" value="Text" style="text;html=1;strokeColor=none;fillColor=none;align=center;verticalAlign=middle;whiteSpace=wrap;rounded=0;" vertex="1" parent="WIyWlLk6GJQsqaUBKTNV-1">
          <mxGeometry x="360" y="240" width="60" height="30" as="geometry" />
        </mxCell>
      </root>
    </mxGraphModel>
  </diagram>
</mxfile>
